<svg version="1.1" xmlns="http://www.w3.org/2000/svg" xmlns:xlink="http://www.w3.org/1999/xlink" width="88" height="80" viewBox="0,0,88,80"><g transform="translate(-196,-140)"><g fill="#000000" stroke="none" stroke-width="0" stroke-miterlimit="10"><path d="M196,179.99999c0,-22.0914 19.69948,-39.99999 44,-39.99999c24.30054,0 44,17.90861 44,39.99999c0,22.0914 -19.69948,40.00001 -44,40.00001c-24.30054,0 -44,-17.90861 -44,-40.00001zM239.78817,211.05278c30.25403,0.13614 33.37665,-25.73038 33.37665,-25.73038h-64.88423c0,0 2.32304,25.59904 31.50758,25.73038zM256.04919,172.95082c3.28655,0 5.95081,-2.42207 5.95081,-5.40983c0,-2.98777 -2.66428,-5.40983 -5.95081,-5.40983c-3.28655,0 -5.95081,2.42207 -5.95081,5.40983c0,2.98777 2.66428,5.40983 5.95081,5.40983zM223.95083,172.95082c3.28655,0 5.95081,-2.42207 5.95081,-5.40983c0,-2.98777 -2.66428,-5.40983 -5.95081,-5.40983c-3.28655,0 -5.95081,2.42207 -5.95081,5.40983c0,2.98777 2.66428,5.40983 5.95081,5.40983z"/></g></g></svg>