<svg version="1.1" xmlns="http://www.w3.org/2000/svg" xmlns:xlink="http://www.w3.org/1999/xlink" width="81.38425" height="75.28043" viewBox="0,0,81.38425,75.28043"><g transform="translate(-199.30787,-142.35978)"><g fill="#000000" stroke="none" stroke-width="0" stroke-miterlimit="10"><path d="M199.30787,179.99999c0,-20.78812 18.21849,-37.64021 40.69213,-37.64021c22.47365,0 40.69213,16.8521 40.69213,37.64021c0,20.78812 -18.21849,37.64023 -40.69213,37.64023c-22.47365,0 -40.69213,-16.8521 -40.69213,-37.64023zM239.8041,209.22083c27.97956,0.12811 30.86743,-24.21242 30.86743,-24.21242h-60.0063c0,0 2.1484,24.08884 29.13887,24.21242zM254.84263,173.36668c3.03947,0 5.50343,-2.27918 5.50343,-5.09068c0,-2.81151 -2.46398,-5.09068 -5.50343,-5.09068c-3.03947,0 -5.50343,2.27918 -5.50343,5.09068c0,2.81151 2.46398,5.09068 5.50343,5.09068zM225.15739,173.36668c3.03947,0 5.50343,-2.27918 5.50343,-5.09068c0,-2.81151 -2.46398,-5.09068 -5.50343,-5.09068c-3.03947,0 -5.50343,2.27918 -5.50343,5.09068c0,2.81151 2.46398,5.09068 5.50343,5.09068z"/></g></g></svg>